<svg width="16" height="16" viewBox="0 0 16 16" fill="none" xmlns="http://www.w3.org/2000/svg">
<path d="M4.4151 2.63507C4.6551 2.40757 4.6651 2.02757 4.4351 1.78757C4.2051 1.54757 3.8251 1.53757 3.5851 1.76507C2.3626 2.93007 1.6001 4.57757 1.6001 6.40007C1.6001 6.73257 1.8676 7.00007 2.2001 7.00007C2.5326 7.00007 2.8001 6.73257 2.8001 6.40007C2.8001 4.91757 3.4201 3.58257 4.4151 2.63507ZM12.4151 1.76507C12.1751 1.53757 11.7951 1.54507 11.5676 1.78507C11.3401 2.02507 11.3476 2.40507 11.5876 2.63257C12.5826 3.58007 13.2026 4.91757 13.2026 6.39757C13.2026 6.73007 13.4701 6.99757 13.8026 6.99757C14.1351 6.99757 14.4026 6.73007 14.4026 6.39757C14.4026 4.57507 13.6401 2.92757 12.4176 1.76257L12.4151 1.76507ZM8.0001 1.60007C7.5576 1.60007 7.2001 1.95757 7.2001 2.40007V2.48007C5.3751 2.85007 4.0001 4.46507 4.0001 6.40007V6.94257C4.0001 8.14507 3.5901 9.31257 2.8401 10.2526L2.5951 10.5576C2.4701 10.7151 2.4001 10.9101 2.4001 11.1126C2.4001 11.6026 2.7976 12.0001 3.2876 12.0001H12.7101C13.2001 12.0001 13.5976 11.6026 13.5976 11.1126C13.5976 10.9101 13.5301 10.7151 13.4026 10.5576L13.1576 10.2526C12.4101 9.31257 12.0001 8.14507 12.0001 6.94257V6.40007C12.0001 4.46507 10.6251 2.85007 8.8001 2.48007V2.40007C8.8001 1.95757 8.4426 1.60007 8.0001 1.60007ZM6.4501 13.2001C6.6276 13.8901 7.2551 14.4001 8.0001 14.4001C8.7451 14.4001 9.3726 13.8901 9.5501 13.2001H6.4501Z" fill="black"/>
</svg>
