<svg width="149" height="47" viewBox="0 0 149 47" fill="none" xmlns="http://www.w3.org/2000/svg">
<g clip-path="url(#clip0_2204_25)">
<path d="M44.5908 1.16539H46.5598V14.7546C46.5598 16.0225 46.4285 16.9587 46.1661 17.5631C45.91 18.1741 45.4931 18.6602 44.9157 19.0215C44.338 19.3893 43.6423 19.5732 42.8284 19.5732C42.7036 19.5732 42.4902 19.5535 42.1882 19.5142L41.824 17.6812H42.3261C42.8907 17.6812 43.3207 17.6123 43.6161 17.4743C43.9178 17.3363 44.1542 17.0934 44.3249 16.7452C44.5021 16.3969 44.5908 15.6579 44.5908 14.5278V1.16539ZM51.6483 1.16539H53.6174V14.9319H51.6483V1.16539ZM63.0772 1.08642H64.4656L70.6192 14.9319H68.601L66.7696 10.8522H60.9212L59.1883 14.9319H57.1698L63.0772 1.08642ZM65.9623 9.0981L63.7469 4.11168L61.6892 9.0981H65.9623ZM85.0809 1.16539H86.9516V14.9319H85.2581L76.0621 4.33847V14.9319H74.211V1.16539H75.806L85.0809 11.8474V1.16539ZM95.3287 9.15713L93.832 8.25072C92.8933 7.67907 92.2238 7.11726 91.8233 6.56554C91.4296 6.007 91.2328 5.36648 91.2328 4.64397C91.2328 3.55996 91.6068 2.67953 92.3552 2.00293C93.1101 1.32633 94.088 0.988037 95.2891 0.988037C96.438 0.988037 97.4913 1.30994 98.4496 1.95374V4.19064C97.4585 3.23806 96.3918 2.76177 95.2498 2.76177C94.6065 2.76177 94.0782 2.91288 93.6646 3.2151C93.251 3.51076 93.0443 3.8917 93.0443 4.35815C93.0443 4.77213 93.1953 5.15962 93.4972 5.52087C93.7992 5.88238 94.2882 6.26003 94.9642 6.65433L96.4707 7.54107C98.1512 8.53957 98.9913 9.8143 98.9913 11.3645C98.9913 12.4682 98.6205 13.365 97.8787 14.0548C97.1435 14.7447 96.1851 15.0896 95.0038 15.0896C93.6449 15.0896 92.4076 14.6723 91.2918 13.8381V11.335C92.3552 12.6819 93.5859 13.3552 94.9838 13.3552C95.6009 13.3552 96.1131 13.1844 96.5199 12.8428C96.9335 12.4947 97.1402 12.061 97.1402 11.5419C97.1402 10.701 96.5363 9.90613 95.3287 9.15713ZM112.872 1.16539H114.841V14.9319H112.872V8.94043H105.143V14.9319H103.174V1.16539H105.143V7.11726H112.872V1.16539ZM124.291 1.08642H125.68L131.833 14.9319H129.815L127.983 10.8522H122.135L120.402 14.9319H118.384L124.291 1.08642ZM127.176 9.0981L124.961 4.11168L122.903 9.0981H127.176ZM146.295 1.16539H148.166V14.9319H146.472L137.276 4.33847V14.9319H135.425V1.16539H137.02L146.295 11.8474V1.16539ZM48.9624 23.791H50.3505L56.5042 37.6365H54.4859L52.6545 33.5567H46.8061L45.0732 37.6365H43.0548L48.9624 23.791ZM51.8472 31.8026L49.6319 26.8162L47.5741 31.8026H51.8472ZM71.8913 34.4437V36.6117C70.4473 37.3998 68.7802 37.7941 66.8898 37.7941C65.3538 37.7941 64.0507 37.4853 62.9809 36.8678C61.911 36.2502 61.0643 35.3996 60.4407 34.3155C59.8172 33.2315 59.5054 32.059 59.5054 30.7976C59.5054 28.7938 60.2174 27.1086 61.6418 25.7423C63.0727 24.3757 64.8351 23.6926 66.9291 23.6926C68.3732 23.6926 69.978 24.0702 71.7436 24.8258V26.9444C70.1355 26.0246 68.5635 25.5647 67.0274 25.5647C65.4521 25.5647 64.1427 26.0642 63.0989 27.0627C62.062 28.0546 61.5435 29.2996 61.5435 30.7976C61.5435 32.3085 62.0554 33.5501 63.0793 34.5224C64.1034 35.4947 65.4128 35.981 67.0078 35.981C68.6751 35.981 70.3029 35.4684 71.8913 34.4437ZM80.7213 23.791H82.1094L88.2631 37.6365H86.2449L84.4134 33.5567H78.565L76.8321 37.6365H74.8137L80.7213 23.791ZM83.6061 31.8026L81.3908 26.8162L79.333 31.8026H83.6061ZM91.8155 37.6168V23.8699H96.4531C98.3236 23.8699 99.8039 24.1522 100.894 24.7173C101.983 25.2758 102.849 26.1003 103.493 27.1908C104.136 28.2814 104.458 29.4704 104.458 30.758C104.458 31.6778 104.28 32.5582 103.926 33.399C103.572 34.2399 103.066 34.979 102.41 35.6163C101.74 36.2732 100.962 36.7691 100.076 37.1044C99.5576 37.308 99.0817 37.446 98.6485 37.5181C98.2154 37.584 97.3882 37.6168 96.1675 37.6168H91.8155ZM96.2461 25.624H93.7848V35.8627H96.3054C97.2899 35.8627 98.0546 35.7969 98.5993 35.6657C99.1443 35.5277 99.5972 35.3569 99.9582 35.1531C100.326 34.9429 100.66 34.6866 100.962 34.3844C101.934 33.399 102.419 32.1541 102.419 30.6498C102.419 29.1714 101.921 27.9661 100.923 27.0332C100.556 26.685 100.132 26.3992 99.6529 26.1757C99.1803 25.9524 98.7306 25.8046 98.3039 25.7322C97.8774 25.6601 97.1913 25.624 96.2461 25.624ZM108.936 23.8699H116.734V25.624H110.905V29.8218H116.537V31.5859H110.905V35.8627H116.921V37.6168H108.936V23.8699ZM131.983 23.8699H133.814V37.6365H131.835V26.9247L127.602 32.2461H127.237L122.964 26.9247V37.6365H120.995V23.8699H122.846L127.424 29.5264L131.983 23.8699ZM147.085 23.8699H149.467L144.387 30.3541V37.6365H142.368V30.3541L137.288 23.8699H139.67L143.353 28.6197L147.085 23.8699Z" fill="black"/>
<g clip-path="url(#clip1_2204_25)">
<path d="M5.30893 19.5434C4.57868 20.6345 4.38017 21.0353 4.38017 21.0353C4.32243 21.1853 4.21776 21.1428 4.21776 21.1428C4.13235 21.1229 4.16844 20.9942 4.16844 20.9942C4.32363 20.0279 4.43551 19.7133 4.43551 19.7133C3.10615 21.4415 2.65139 23.609 2.65139 23.609C2.36988 25.1619 2.12446 25.8136 2.12446 25.8136C1.75633 26.902 1.20533 27.3467 1.20533 27.3467C1.44353 27.2763 1.84174 27.3068 1.84174 27.3068C2.86072 27.3467 3.46586 27.3467 3.46586 27.3467C4.14438 27.3692 4.52574 27.2259 4.52574 27.2259C4.89267 27.0732 5.0202 26.768 5.0202 26.768C5.03223 26.7056 5.08155 26.691 5.08155 26.691C5.11644 26.6658 5.12967 26.7215 5.12967 26.7215C5.67345 27.8524 4.72906 28.1749 4.72906 28.1749C4.14919 28.3913 2.5359 28.0077 2.5359 28.0077C1.77678 27.8165 0.736143 28.0196 0.736143 28.0196C0.560498 28.0714 0.285 28.2121 0.285 28.2121C0.182741 28.2877 0.108152 28.2054 0.108152 28.2054C0.0383754 28.1377 0.0119083 28.086 0.0119083 28.086C-0.020574 28.0063 0.0479997 27.9572 0.0479997 27.9572C0.199584 27.7488 0.464254 27.567 0.464254 27.567C0.643508 27.3652 0.920209 26.675 0.920209 26.675C1.03811 26.387 1.18127 26.034 1.31 25.5654C1.55542 24.692 1.63121 23.897 1.63121 23.897C2.08596 21.5065 2.71636 20.2217 2.71636 20.2217C3.26856 19.0045 3.99159 18.6581 3.99159 18.6581C4.18287 18.5572 4.39822 18.6714 4.39822 18.6714C4.92876 18.9156 5.28968 19.2394 5.28968 19.2394C5.44848 19.3403 5.31013 19.5447 5.31013 19.5447L5.30893 19.5434Z" fill="#DADADA" fill-opacity="0.7"/>
<path d="M11.4061 19.2262C10.7203 19.3403 10.3907 19.4226 10.3907 19.4226C10.2307 19.485 10.2138 19.416 10.2138 19.416C10.1657 19.3854 10.256 19.3138 10.256 19.3138C10.5772 19.0855 10.7552 18.9886 10.7552 18.9886C10.2788 18.966 9.30675 19.2832 9.30675 19.2832C7.65978 19.8142 6.61433 20.6583 6.61433 20.6583C9.39577 20.1473 10.1645 19.9349 10.1645 19.9349L10.2776 19.9018C10.345 19.7929 10.4484 19.9403 10.4484 19.9403C10.6638 20.2177 10.766 20.5296 10.766 20.5296C10.8695 20.7366 10.689 20.8203 10.689 20.8203C10.3883 20.9689 9.88301 21.2662 9.88301 21.2662C9.19486 21.6472 8.15663 22.356 6.98005 23.3262C4.80735 25.1261 5.00224 26.537 5.00224 26.537C5.17789 26.6485 5.51835 26.6671 5.51835 26.6671C5.6952 26.6737 5.80227 26.6724 6.18243 26.5755C7.35179 26.3485 8.83395 25.1977 8.83395 25.1977C9.61593 24.5951 10.5507 23.6806 11.4325 22.3812C11.5408 22.2153 11.5853 22.2325 11.5853 22.2325C11.6358 22.2179 11.631 22.3666 11.631 22.3666C11.6719 22.7555 11.4482 23.163 11.4482 23.163C10.7071 24.5991 9.45352 25.8601 9.45352 25.8601C8.7365 26.5622 7.86429 27.2352 6.84411 27.5219C5.18029 27.9838 4.66539 26.6379 4.66539 26.6379C4.50779 26.4321 4.47651 26.026 4.47651 26.026C4.46689 25.8216 4.49817 25.5601 4.59682 25.2482C4.71471 24.6788 5.38842 23.7974 5.38842 23.7974C5.79625 23.2612 6.40379 22.6068 7.30367 21.8808C8.56447 20.8694 9.16599 20.5734 9.16599 20.5734C7.45526 21.0048 6.45071 21.3021 6.45071 21.3021C6.10784 21.3883 6.00919 21.2543 6.00919 21.2543C5.73249 20.8906 5.64467 20.6942 5.64467 20.6942C5.46662 20.4048 5.78061 20.0902 5.78061 20.0902C6.53011 19.2447 8.5789 18.3727 8.5789 18.3727C9.17682 18.1218 9.8818 17.8683 10.7263 17.6334C10.9297 17.5285 11.0247 17.7528 11.0247 17.7528L11.3952 18.7271C11.5107 18.8704 11.5155 18.9434 11.5155 18.9434C11.5853 19.1757 11.4097 19.2275 11.4097 19.2275L11.4061 19.2262Z" fill="#DADADA" fill-opacity="0.7"/>
<path d="M20.5022 15.3053C18.0649 20.1673 18.5774 21.9445 18.5774 21.9445C18.7578 22.7967 19.1981 22.7263 19.1981 22.7263C19.3112 22.6931 19.3473 22.786 19.3473 22.786C19.3798 22.8657 19.2415 22.9068 19.2415 22.9068C17.9698 23.0449 17.5993 21.849 17.5993 21.849C17.3166 20.8495 17.6787 19.4067 17.6787 19.4067C18.0047 18.0343 18.9912 16.0061 18.9912 16.0061L18.9623 15.9995C16.3337 20.5163 15.4771 22.4171 15.4771 22.4171C14.9057 23.7736 14.8696 24.1253 14.8696 24.1253C14.8467 24.2514 14.8696 24.4067 14.8696 24.4067C14.9285 24.5381 14.8311 24.5819 14.8311 24.5819C14.7372 24.639 14.5953 24.4439 14.5953 24.4439L14.155 23.8466C13.9168 23.5307 14.0094 22.9692 14.0094 22.9692C14.4581 20.9955 15.7634 17.6719 15.7634 17.6719C16.2302 16.2716 16.3794 15.9464 16.3794 15.9464C16.3854 15.9146 16.3698 15.9053 16.3698 15.9053C16.3541 15.8946 16.3385 15.8854 16.3156 15.9053C14.4052 17.3454 12.6439 20.6716 12.6439 20.6716C12.7294 20.6915 12.8485 20.6849 12.8485 20.6849C12.9243 20.6623 12.9218 20.7075 12.9218 20.7075C12.9351 20.7632 12.8701 20.8269 12.8701 20.8269C12.5561 21.0831 12.2975 20.9066 12.2975 20.9066C11.7537 20.5482 11.6057 20.162 11.6057 20.162C11.4577 19.9974 11.649 19.7332 11.649 19.7332C13.2082 17.6255 14.2681 16.614 14.2681 16.614C15.0139 15.9185 15.4374 15.6146 15.4374 15.6146C16.0161 15.1168 16.5394 15.5562 16.5394 15.5562C16.7451 15.6292 16.8498 16.1176 16.8498 16.1176C16.9677 16.6021 16.8835 17.0866 16.8835 17.0866C16.8041 18.09 16.0426 19.9921 16.0426 19.9921L16.0738 20.012C18.4186 16.0977 19.2006 14.6656 19.2006 14.6656L19.2836 14.5076C19.3654 14.2899 19.5747 14.3775 19.5747 14.3775C20.1437 14.6695 20.4445 14.9669 20.4445 14.9669C20.6466 15.0253 20.4998 15.3066 20.4998 15.3066L20.5022 15.3053Z" fill="#DADADA" fill-opacity="0.7"/>
<path d="M28.0525 13.771C28.1909 14.1758 27.8733 14.2541 27.8733 14.2541C26.9589 14.42 26.7352 14.4426 26.7352 14.4426C26.5295 14.4293 26.6666 14.3298 26.6666 14.3298C27.0756 14.0749 27.3163 13.9594 27.3163 13.9594C27.1105 13.8864 26.278 14.059 26.278 14.059C26.0482 14.1121 25.7848 14.1904 25.4551 14.2727C24.6575 14.4784 23.0972 15.2522 23.0972 15.2522L23.1008 15.2655C23.9321 15.0346 24.9691 14.9801 24.9691 14.9801C25.5009 14.9562 26.0843 14.9775 26.6221 15.085C27.2044 15.2098 27.6543 15.6252 27.6543 15.6252C27.8648 15.8296 28.0525 16.1004 28.1427 16.4747C28.3028 17.0799 28.1307 17.9188 28.1307 17.9188C28.0453 18.3449 27.8552 18.832 27.5184 19.3311C26.823 20.6796 25.1941 21.7242 25.1941 21.7242C24.6695 22.0574 24.0211 22.3228 23.3005 22.5657C22.0926 22.9666 21.0075 22.6493 21.0075 22.6493C20.6429 22.5339 20.2868 22.3427 19.9921 22.0149C19.7864 21.7786 19.6143 21.4587 19.4712 21.0858C19.3268 20.7128 19.4495 20.1128 19.4495 20.1128C19.5229 19.7505 19.6949 19.2979 20.0847 18.7975C20.5323 18.2055 21.4129 17.6188 21.4129 17.6188C21.8652 17.3215 22.4319 17.0507 23.1032 16.8224C25.016 16.1681 26.4007 17.0494 26.4007 17.0494C26.598 17.1397 26.5583 17.2551 26.5583 17.2551C26.5186 17.3706 26.3731 17.3242 26.3731 17.3242C25.1688 16.9087 23.3703 17.5883 23.3703 17.5883C22.498 17.8763 21.6956 18.3356 21.6956 18.3356C21.3768 18.5187 21.0496 18.7192 20.8294 18.978C20.2712 19.3948 19.956 19.9788 19.956 19.9788C19.796 20.2628 19.6877 20.592 19.7431 20.9318C19.968 21.6366 21.0616 21.8184 21.0616 21.8184C21.5224 21.8901 22.1564 21.8954 22.9877 21.6645C23.7817 21.4441 24.7526 20.8455 24.7526 20.8455C25.3866 20.4646 26.0903 19.931 26.7328 19.2514C27.2874 18.6568 27.6483 17.9268 27.6483 17.9268C27.8215 17.5339 27.9479 17.1105 27.8841 16.6844C27.4366 15.6743 25.5045 15.6372 25.5045 15.6372C24.5456 15.5642 22.7868 16.0247 22.7868 16.0247C22.0794 16.3234 21.8881 15.9783 21.8881 15.9783C21.591 15.5323 21.7149 15.154 21.7149 15.154C21.7473 15.0107 21.941 14.8647 21.941 14.8647C23.3751 13.4604 27.2501 12.5233 27.2501 12.5233C27.676 12.3375 27.8263 12.7383 27.8263 12.7383C28.0188 13.2002 28.0501 13.771 28.0501 13.771H28.0525Z" fill="#DADADA" fill-opacity="0.7"/>
<path d="M13.8914 11.3698C13.4222 12.8431 12.71 14.0244 11.7536 14.9137C10.7972 15.803 9.59415 16.533 8.14448 17.1038C6.69481 17.6745 5.84907 17.9599 5.60846 17.9599C5.50018 17.9599 5.44604 17.9227 5.44604 17.8511C5.44604 17.7794 5.53026 17.7024 5.69868 17.6214C7.58747 16.772 8.99504 15.8827 9.92138 14.9535C10.8477 14.0244 11.5118 12.867 11.916 11.48C12.3191 10.0929 12.52 8.0794 12.52 5.43673C12.52 4.78635 12.5079 4.05633 12.4839 3.24667C13.1335 3.31303 13.729 3.39931 14.2704 3.50549C14.8118 3.61168 15.1306 3.70459 15.2268 3.78423C15.3231 3.86387 15.3712 3.96076 15.3712 4.07225C15.3712 4.18375 15.287 4.28197 15.1185 4.36161C14.9621 4.44125 14.8719 4.69344 14.8479 5.11817C14.7155 6.84368 14.5832 8.09799 14.4509 8.8811C15.2569 8.97401 15.7622 9.05763 15.9667 9.13063C16.1712 9.20364 16.2735 9.30717 16.2735 9.4399C16.2735 9.57263 16.1832 9.70536 16.0028 9.83809V14.5169C16.0028 14.6761 16.0353 14.8195 16.1026 14.9443C16.1688 15.0704 16.2494 15.1633 16.3457 15.223C16.4419 15.2827 16.6645 15.3292 17.0133 15.3624C17.3622 15.3955 17.7111 15.4128 18.06 15.4128C19.0224 15.4128 19.624 15.3066 19.8646 15.0942C20.1052 14.8819 20.3301 14.4903 20.5407 13.9196C20.7512 13.3488 20.9762 12.5591 21.2168 11.5503C21.2529 11.4043 21.307 11.3313 21.3792 11.3313C21.4754 11.3313 21.5055 11.4242 21.4694 11.6101C21.3852 12.1808 21.3431 12.6918 21.3431 13.1431C21.3431 14.404 21.6138 15.1208 22.1552 15.2933C22.4078 15.373 22.5341 15.5123 22.5341 15.7114C22.5341 15.9105 22.4078 16.1959 22.1552 16.5676C21.9025 16.9392 21.4478 17.1914 20.7933 17.3241C20.1377 17.4569 19.2258 17.5232 18.0588 17.5232C16.8918 17.5232 16.0377 17.4768 15.4963 17.3839C14.9549 17.2909 14.5519 17.0786 14.2872 16.7467C14.0226 16.4149 13.8902 15.9105 13.8902 15.2336V11.3711L13.8914 11.3698ZM10.7154 0.996875H16.49C16.7788 0.373039 16.9616 0.00537345 17.041 -0.108775C17.1192 -0.221597 17.2058 -0.277344 17.3021 -0.277344C17.4585 -0.277344 17.9216 -0.00126311 18.6916 0.549571C19.4615 1.1004 19.8465 1.45878 19.8465 1.62469C19.8465 1.79061 19.6179 1.98041 19.1608 2.19145V9.10011C19.1608 9.72394 19.1668 10.1553 19.1788 10.3942L19.1969 11.0712C19.1969 11.1906 19.1367 11.3008 19.0164 11.4003C18.8961 11.4999 18.6796 11.5968 18.3668 11.6884C18.054 11.7813 17.7653 11.8277 17.5006 11.8277C17.2359 11.8277 17.0555 11.768 16.9592 11.6485C16.863 11.5291 16.8148 11.3964 16.8148 11.2504V1.65389H10.9861C10.9259 1.76008 10.8237 1.85299 10.6793 1.93263V10.8522C10.6793 11.33 10.5049 11.6552 10.156 11.8277C9.80709 12.0003 9.42212 12.0866 9.00105 12.0866C8.88075 12.0866 8.75443 12.0401 8.62209 11.9472C8.48975 11.8543 8.42359 11.7614 8.42359 11.6685C8.42359 11.6552 8.43562 11.3738 8.45968 10.8216C8.48374 10.2708 8.49577 9.6443 8.49577 8.94083V2.13173C8.49577 1.4017 8.47171 0.711503 8.42359 0.0611205C9.2176 0.31331 9.98153 0.625228 10.7154 0.996875Z" fill="black"/>
<path d="M13.3139 35.2216V21.6631C13.3139 20.9994 13.3019 20.4088 13.2778 19.8911C14.0718 19.984 14.6914 20.0743 15.1365 20.1592C15.5817 20.2455 15.8487 20.3185 15.939 20.3782C16.0292 20.438 16.0737 20.515 16.0737 20.6079C16.0737 20.7804 15.9233 20.9662 15.6226 21.1653V35.2216H19.1234V25.9038C19.1234 25.0942 19.1054 24.4438 19.0693 23.9527C19.755 24.0589 20.3169 24.1624 20.756 24.2619C21.1951 24.3615 21.5019 24.4478 21.6763 24.5208C21.8507 24.5938 21.9374 24.6893 21.9374 24.8088C21.9374 24.9283 21.781 25.0809 21.4682 25.2667V34.4849C21.4682 35.2813 21.4802 35.8321 21.5043 36.1374C21.5283 36.4427 21.5404 36.6086 21.5404 36.6351C21.5404 36.821 21.3479 37.0001 20.9629 37.1727C20.5779 37.3452 20.1953 37.4315 19.8164 37.4315C19.4374 37.4315 19.2269 37.4076 19.1848 37.3625C19.1427 37.316 19.1222 37.1992 19.1222 37.0147V35.8799H9.90087L9.50386 36.5369C9.43168 36.6564 9.35589 36.7161 9.27769 36.7161C9.19949 36.7161 9.02144 36.6564 8.74474 36.5369C8.46804 36.4175 8.14562 36.2489 7.77989 36.0299C7.41296 35.8109 7.21085 35.6781 7.17596 35.6317C7.13987 35.5852 7.12183 35.5122 7.12183 35.4127C7.12183 35.3131 7.19401 35.207 7.33838 35.0941C7.48274 34.9813 7.58139 34.8685 7.63553 34.7557C7.68966 34.6428 7.71734 34.4464 7.71734 34.169V25.568C7.71734 24.9442 7.69929 24.4398 7.6632 24.0549C8.55345 24.1213 9.21152 24.2035 9.6398 24.3044C10.0669 24.404 10.2798 24.5301 10.2798 24.6827C10.2798 24.8353 10.1355 24.9853 9.84673 25.1313V35.2255H13.3115L13.3139 35.2216Z" fill="black"/>
<path d="M8.0939 44.7188H8.25872L8.99498 46.5398H8.75437L8.53542 46.0036H7.83525L7.63073 46.5398H7.38892L8.0939 44.7188ZM8.43918 45.7726L8.17451 45.1169L7.92908 45.7726H8.43918Z" fill="black"/>
<path d="M11.1184 46.1202V46.4056C10.9464 46.5091 10.7467 46.5609 10.5217 46.5609C10.3389 46.5609 10.1825 46.5198 10.0549 46.4388C9.92742 46.3578 9.82636 46.245 9.75178 46.103C9.67719 45.961 9.63989 45.8057 9.63989 45.6398C9.63989 45.3756 9.72531 45.154 9.89494 44.9748C10.0646 44.7956 10.2751 44.7053 10.5253 44.7053C10.6974 44.7053 10.8887 44.7544 11.1004 44.854V45.1327C10.9079 45.0119 10.7214 44.9509 10.5374 44.9509C10.3533 44.9509 10.1933 45.0159 10.0694 45.1473C9.94547 45.2787 9.88291 45.442 9.88291 45.6398C9.88291 45.8375 9.94426 46.0021 10.0658 46.1295C10.1873 46.257 10.3437 46.322 10.535 46.322C10.7262 46.322 10.9284 46.2543 11.1172 46.1202H11.1184Z" fill="black"/>
<path d="M12.4608 44.7185H12.6257L13.3619 46.5396H13.1213L12.9024 46.0033H12.2022L11.9977 46.5396H11.7559L12.4608 44.7185ZM12.8061 45.7724L12.5414 45.1167L12.296 45.7724H12.8061Z" fill="black"/>
<path d="M14.073 46.537V44.7292H14.6264C14.8502 44.7292 15.0258 44.7664 15.1557 44.8394C15.2857 44.9124 15.3891 45.0226 15.4661 45.1659C15.5431 45.3093 15.5816 45.4659 15.5816 45.6358C15.5816 45.7566 15.56 45.8721 15.5179 45.9836C15.4758 46.0951 15.4156 46.1919 15.3374 46.2756C15.258 46.3618 15.1642 46.4269 15.0595 46.4707C14.9981 46.4972 14.9404 46.5158 14.8887 46.5251C14.8369 46.5344 14.7383 46.5384 14.5927 46.5384H14.073V46.537ZM14.6023 44.9602H14.3088V46.3074H14.6096C14.7275 46.3074 14.8189 46.2981 14.8839 46.2809C14.9488 46.2636 15.003 46.2411 15.0463 46.2132C15.0896 46.1853 15.1293 46.1521 15.1654 46.1123C15.2809 45.9822 15.3398 45.819 15.3398 45.6212C15.3398 45.4234 15.2797 45.2681 15.1618 45.146C15.1184 45.1009 15.0679 45.0624 15.0114 45.0332C14.9548 45.004 14.9007 44.9841 14.8502 44.9748C14.7996 44.9655 14.7178 44.9602 14.6047 44.9602H14.6023Z" fill="black"/>
<path d="M16.4045 44.7292H17.3345V44.9602H16.6391V45.5124H17.3116V45.7446H16.6391V46.3074H17.3574V46.5384H16.4045V44.7306V44.7292Z" fill="black"/>
<path d="M19.4422 44.7292H19.6624V46.5397H19.4266V45.1301L18.9225 45.8296H18.8792L18.3691 45.1301V46.5397H18.1345V44.7292H18.3571L18.9021 45.4725L19.4446 44.7292H19.4422Z" fill="black"/>
<path d="M21.5319 44.7292H21.8171L21.2107 45.5827V46.541H20.9701V45.5827L20.3638 44.7292H20.6477L21.0868 45.3531L21.5319 44.7292Z" fill="black"/>
</g>
</g>
<defs>
<clipPath id="clip0_2204_25">
<rect width="149" height="47" fill="white"/>
</clipPath>
<clipPath id="clip1_2204_25">
<rect width="28.2091" height="46.8382" fill="white" transform="translate(0.00341797 -0.277344)"/>
</clipPath>
</defs>
</svg>
