<svg width="60" height="90" viewBox="0 0 60 90" fill="none" xmlns="http://www.w3.org/2000/svg">
<g clip-path="url(#clip0_2253_266)">
<path d="M11.2852 38.0856C9.73198 40.1821 9.30977 40.9523 9.30977 40.9523C9.18695 41.2405 8.96433 41.1589 8.96433 41.1589C8.78265 41.1206 8.85942 40.8732 8.85942 40.8732C9.18951 39.0165 9.42748 38.412 9.42748 38.412C6.59995 41.7327 5.6327 45.8976 5.6327 45.8976C5.03393 48.8816 4.51192 50.1339 4.51192 50.1339C3.72892 52.2252 2.55696 53.0796 2.55696 53.0796C3.06361 52.9445 3.91059 53.0031 3.91059 53.0031C6.07794 53.0796 7.36505 53.0796 7.36505 53.0796C8.80824 53.123 9.6194 52.8475 9.6194 52.8475C10.3998 52.5542 10.6711 51.9676 10.6711 51.9676C10.6967 51.8478 10.8016 51.8197 10.8016 51.8197C10.8758 51.7713 10.9039 51.8784 10.9039 51.8784C12.0605 54.0514 10.0518 54.6711 10.0518 54.6711C8.81847 55.0868 5.38705 54.3498 5.38705 54.3498C3.77242 53.9825 1.55901 54.3727 1.55901 54.3727C1.18542 54.4722 0.599438 54.7425 0.599438 54.7425C0.381935 54.8879 0.223286 54.7298 0.223286 54.7298C0.0748728 54.5997 0.018578 54.5002 0.018578 54.5002C-0.050511 54.3472 0.0953436 54.2528 0.0953436 54.2528C0.417759 53.8524 0.980707 53.503 0.980707 53.503C1.36198 53.1153 1.95051 51.7891 1.95051 51.7891C2.20128 51.2357 2.50578 50.5572 2.77958 49.6569C3.30159 47.9788 3.46279 46.451 3.46279 46.451C4.43004 41.8577 5.77088 39.3889 5.77088 39.3889C6.94539 37.0501 8.48326 36.3844 8.48326 36.3844C8.89012 36.1906 9.34816 36.4099 9.34816 36.4099C10.4766 36.8792 11.2443 37.5015 11.2443 37.5015C11.582 37.6954 11.2878 38.0881 11.2878 38.0881L11.2852 38.0856Z" fill="#DADADA"/>
<path d="M24.2542 37.4762C22.7957 37.6956 22.0946 37.8537 22.0946 37.8537C21.7542 37.9736 21.7184 37.8409 21.7184 37.8409C21.6161 37.7823 21.808 37.6446 21.808 37.6446C22.4912 37.2059 22.8699 37.0197 22.8699 37.0197C21.8566 36.9763 19.789 37.5859 19.789 37.5859C16.286 38.6061 14.0623 40.2282 14.0623 40.2282C19.9784 39.2462 21.6135 38.8382 21.6135 38.8382L21.854 38.7744C21.9973 38.5653 22.2174 38.8484 22.2174 38.8484C22.6754 39.3814 22.8929 39.9808 22.8929 39.9808C23.113 40.3786 22.7292 40.5393 22.7292 40.5393C22.0894 40.825 21.0147 41.3963 21.0147 41.3963C19.5511 42.1282 17.3428 43.4902 14.8402 45.3545C10.2189 48.8129 10.6335 51.5241 10.6335 51.5241C11.0071 51.7383 11.7312 51.774 11.7312 51.774C12.1074 51.7868 12.3351 51.7842 13.1437 51.598C15.6309 51.1619 18.7834 48.9507 18.7834 48.9507C20.4467 47.7928 22.4349 46.0355 24.3105 43.5386C24.5408 43.2198 24.6355 43.253 24.6355 43.253C24.743 43.2249 24.7327 43.5106 24.7327 43.5106C24.8197 44.2579 24.3438 45.0408 24.3438 45.0408C22.7675 47.8004 20.1012 50.2233 20.1012 50.2233C18.5761 51.5725 16.721 52.8656 14.5511 53.4165C11.0122 54.3041 9.91698 51.7179 9.91698 51.7179C9.58177 51.3226 9.51524 50.5421 9.51524 50.5421C9.49477 50.1494 9.5613 49.6469 9.77113 49.0476C10.0219 47.9534 11.4549 46.26 11.4549 46.26C12.3223 45.2296 13.6145 43.9722 15.5285 42.5771C18.2102 40.6337 19.4897 40.0649 19.4897 40.0649C15.851 40.8938 13.7143 41.4651 13.7143 41.4651C12.985 41.6309 12.7752 41.3733 12.7752 41.3733C12.1867 40.6745 11.9999 40.297 11.9999 40.297C11.6212 39.741 12.289 39.1366 12.289 39.1366C13.8832 37.5119 18.2409 35.8363 18.2409 35.8363C19.5127 35.3543 21.0122 34.8671 22.8085 34.4157C23.2409 34.2142 23.4431 34.6452 23.4431 34.6452L24.2312 36.5173C24.4769 36.7927 24.4871 36.933 24.4871 36.933C24.6355 37.3793 24.2619 37.4788 24.2619 37.4788L24.2542 37.4762Z" fill="#DADADA"/>
<path d="M43.6007 29.9422C38.4165 39.2845 39.5066 42.6995 39.5066 42.6995C39.8904 44.3369 40.827 44.2017 40.827 44.2017C41.0675 44.138 41.1442 44.3165 41.1442 44.3165C41.2133 44.4695 40.9191 44.5486 40.9191 44.5486C38.2144 44.8138 37.4262 42.5159 37.4262 42.5159C36.8249 40.5954 37.5951 37.8231 37.5951 37.8231C38.2886 35.1859 40.3868 31.2888 40.3868 31.2888L40.3254 31.2761C34.7343 39.9552 32.9124 43.6075 32.9124 43.6075C31.697 46.214 31.6202 46.8899 31.6202 46.8899C31.5716 47.1322 31.6202 47.4306 31.6202 47.4306C31.7456 47.6831 31.5383 47.7673 31.5383 47.7673C31.3387 47.8769 31.0368 47.502 31.0368 47.502L30.1002 46.3543C29.5936 45.7473 29.7906 44.6685 29.7906 44.6685C30.7451 40.876 33.5214 34.4896 33.5214 34.4896C34.5143 31.7989 34.8316 31.1741 34.8316 31.1741C34.8444 31.1129 34.8111 31.095 34.8111 31.095C34.7778 31.0746 34.7446 31.0568 34.6959 31.095C30.6325 33.8622 26.8863 40.2536 26.8863 40.2536C27.068 40.2919 27.3213 40.2792 27.3213 40.2792C27.4825 40.2358 27.4774 40.3225 27.4774 40.3225C27.5056 40.4296 27.3674 40.5521 27.3674 40.5521C26.6995 41.0443 26.1494 40.7051 26.1494 40.7051C24.9928 40.0165 24.678 39.2743 24.678 39.2743C24.3633 38.958 24.7701 38.4505 24.7701 38.4505C28.0864 34.4004 30.3408 32.4569 30.3408 32.4569C31.9273 31.1205 32.828 30.5365 32.828 30.5365C34.0588 29.58 35.1719 30.4242 35.1719 30.4242C35.6094 30.5645 35.8321 31.5031 35.8321 31.5031C36.0828 32.434 35.9037 33.3649 35.9037 33.3649C35.7348 35.293 34.1151 38.9478 34.1151 38.9478L34.1816 38.9861C39.1688 31.4648 40.8321 28.7129 40.8321 28.7129L41.0086 28.4094C41.1826 27.9911 41.6279 28.1595 41.6279 28.1595C42.8382 28.7205 43.4779 29.2918 43.4779 29.2918C43.9078 29.4041 43.5956 29.9448 43.5956 29.9448L43.6007 29.9422Z" fill="#DADADA"/>
<path d="M59.6596 26.9938C59.9539 27.7717 59.2784 27.9222 59.2784 27.9222C57.3336 28.241 56.8577 28.2844 56.8577 28.2844C56.4201 28.2589 56.7118 28.0676 56.7118 28.0676C57.5819 27.5779 58.0936 27.356 58.0936 27.356C57.6561 27.2157 55.8853 27.5473 55.8853 27.5473C55.3966 27.6493 54.8362 27.7998 54.1351 27.9579C52.4386 28.3532 49.1197 29.8401 49.1197 29.8401L49.1274 29.8656C50.8956 29.4219 53.1013 29.3173 53.1013 29.3173C54.2323 29.2714 55.4734 29.3122 56.6172 29.5188C57.8557 29.7585 58.8127 30.5568 58.8127 30.5568C59.2605 30.9496 59.6596 31.4699 59.8516 32.1891C60.1919 33.3521 59.826 34.964 59.826 34.964C59.6443 35.7827 59.24 36.7187 58.5235 37.6776C57.0445 40.2689 53.5798 42.2761 53.5798 42.2761C52.4641 42.9162 51.0849 43.4263 49.5522 43.8931C46.9831 44.6633 44.675 44.0537 44.675 44.0537C43.8997 43.8318 43.1422 43.4646 42.5153 42.8346C42.0778 42.3806 41.7118 41.766 41.4073 41.0493C41.1003 40.3326 41.3613 39.1798 41.3613 39.1798C41.5174 38.4836 41.8833 37.6139 42.7124 36.6524C43.6642 35.5149 45.5373 34.3876 45.5373 34.3876C46.4995 33.8163 47.7047 33.296 49.1325 32.8573C53.2011 31.5999 56.1463 33.2934 56.1463 33.2934C56.566 33.4669 56.4815 33.6887 56.4815 33.6887C56.3971 33.9106 56.0875 33.8214 56.0875 33.8214C53.5261 33.0231 49.7006 34.3289 49.7006 34.3289C47.8454 34.8823 46.1387 35.7648 46.1387 35.7648C45.4606 36.1168 44.7646 36.5019 44.2963 36.9992C43.109 37.8001 42.4386 38.9222 42.4386 38.9222C42.0982 39.468 41.8679 40.1006 41.9856 40.7535C42.4641 42.1077 44.7901 42.4572 44.7901 42.4572C45.7702 42.5949 47.1187 42.6051 48.8869 42.1613C50.5757 41.7379 52.6407 40.5877 52.6407 40.5877C53.9892 39.8557 55.4862 38.8304 56.8526 37.5246C58.0322 36.382 58.7999 34.9793 58.7999 34.9793C59.1683 34.2243 59.437 33.4107 59.3014 32.5921C58.3495 30.6512 54.24 30.5798 54.24 30.5798C52.2006 30.4395 48.4595 31.3245 48.4595 31.3245C46.9549 31.8983 46.5481 31.2352 46.5481 31.2352C45.916 30.3783 46.1796 29.6514 46.1796 29.6514C46.2487 29.3759 46.6607 29.0954 46.6607 29.0954C49.7108 26.397 57.9529 24.5964 57.9529 24.5964C58.8587 24.2394 59.1786 25.0096 59.1786 25.0096C59.588 25.8971 59.6545 26.9938 59.6545 26.9938H59.6596Z" fill="#DADADA"/>
<path d="M29.5393 22.3801C28.5414 25.2111 27.0265 27.481 24.9922 29.1898C22.958 30.8986 20.3991 32.3013 17.3157 33.398C14.2323 34.4947 12.4334 35.0431 11.9216 35.0431C11.6913 35.0431 11.5762 34.9717 11.5762 34.8339C11.5762 34.6962 11.7553 34.5483 12.1135 34.3927C16.1309 32.7604 19.1248 31.0516 21.0951 29.2663C23.0654 27.481 24.4779 25.257 25.3377 22.5918C26.1949 19.9266 26.6222 16.0576 26.6222 10.9797C26.6222 9.72994 26.5966 8.32719 26.5455 6.77142C27.9272 6.89895 29.1939 7.06472 30.3454 7.26876C31.4968 7.4728 32.1749 7.65133 32.3797 7.80435C32.5844 7.95738 32.6867 8.14356 32.6867 8.3578C32.6867 8.57204 32.5076 8.76077 32.1494 8.91379C31.8167 9.06682 31.6248 9.5514 31.5736 10.3675C31.2921 13.6831 31.0107 16.0933 30.7292 17.598C32.4436 17.7766 33.5183 17.9373 33.9533 18.0775C34.3883 18.2178 34.6059 18.4167 34.6059 18.6718C34.6059 18.9268 34.4139 19.1819 34.0301 19.4369V28.4272C34.0301 28.7333 34.0992 29.0087 34.2425 29.2485C34.3832 29.4908 34.5547 29.6693 34.7594 29.7841C34.9641 29.8988 35.4375 29.9881 36.1795 30.0519C36.9216 30.1156 37.6637 30.1488 38.4057 30.1488C40.4528 30.1488 41.7323 29.9447 42.244 29.5367C42.7558 29.1286 43.2343 28.3762 43.6821 27.2795C44.1299 26.1828 44.6084 24.6653 45.1202 22.727C45.1969 22.4464 45.3121 22.3062 45.4656 22.3062C45.6703 22.3062 45.7343 22.4847 45.6575 22.8418C45.4784 23.9384 45.3889 24.9204 45.3889 25.7875C45.3889 28.2104 45.9646 29.5877 47.1161 29.9192C47.6534 30.0723 47.9221 30.3401 47.9221 30.7226C47.9221 31.1052 47.6534 31.6535 47.1161 32.3677C46.5787 33.0818 45.6115 33.5664 44.2195 33.8214C42.8249 34.0765 40.8853 34.204 38.4032 34.204C35.9211 34.204 34.1043 34.1147 32.9528 33.9362C31.8013 33.7576 30.9441 33.3496 30.3812 32.712C29.8182 32.0744 29.5368 31.1052 29.5368 29.8045V22.3827L29.5393 22.3801ZM22.7839 2.44842H35.0664C35.6806 1.24972 36.0695 0.543244 36.2384 0.323906C36.4047 0.107119 36.589 0 36.7937 0C37.1263 0 38.1115 0.530492 39.7491 1.58893C41.3868 2.64736 42.2056 3.33598 42.2056 3.65478C42.2056 3.97359 41.7195 4.3383 40.7471 4.74382V18.0189C40.7471 19.2176 40.7599 20.0465 40.7855 20.5056L40.8239 21.8063C40.8239 22.0358 40.6959 22.2475 40.44 22.4388C40.1841 22.6301 39.7236 22.8163 39.0583 22.9922C38.393 23.1708 37.7788 23.26 37.2159 23.26C36.6529 23.26 36.2691 23.1453 36.0644 22.9157C35.8597 22.6862 35.7573 22.4311 35.7573 22.1506V3.71089H23.3597C23.2317 3.91493 23.0142 4.09346 22.7072 4.24649V21.3855C22.7072 22.3036 22.3361 22.9285 21.5941 23.26C20.852 23.5916 20.0332 23.7574 19.1376 23.7574C18.8817 23.7574 18.613 23.6681 18.3315 23.4896C18.0501 23.311 17.9093 23.1325 17.9093 22.954C17.9093 22.9285 17.9349 22.3878 17.9861 21.3268C18.0373 20.2684 18.0629 19.0646 18.0629 17.7128V4.62905C18.0629 3.22631 18.0117 1.90008 17.9093 0.650363C19.5982 1.13495 21.223 1.7343 22.7839 2.44842Z" fill="#06070A"/>
<path d="M28.311 68.2115V42.1587C28.311 40.8835 28.2855 39.7486 28.2343 38.7539C29.9231 38.9324 31.2409 39.1059 32.1877 39.2691C33.1345 39.4349 33.7026 39.5751 33.8945 39.6899C34.0864 39.8047 34.1811 39.9526 34.1811 40.1311C34.1811 40.4627 33.8612 40.8198 33.2215 41.2023V68.2115H40.6677V50.3074C40.6677 48.7516 40.6294 47.5019 40.5526 46.5583C42.0111 46.7623 43.2061 46.9612 44.1401 47.1525C45.0741 47.3438 45.7266 47.5096 46.0976 47.6498C46.4687 47.7901 46.6529 47.9738 46.6529 48.2033C46.6529 48.4328 46.3203 48.7261 45.655 49.0832V66.796C45.655 68.3263 45.6805 69.3847 45.7317 69.9713C45.7829 70.5579 45.8085 70.8767 45.8085 70.9277C45.8085 71.2848 45.3991 71.6291 44.5802 71.9607C43.7614 72.2922 42.9477 72.458 42.1417 72.458C41.3356 72.458 40.8878 72.4121 40.7983 72.3254C40.7087 72.2361 40.6652 72.0117 40.6652 71.6572V69.4765H21.0516L20.2072 70.739C20.0536 70.9685 19.8924 71.0833 19.7261 71.0833C19.5598 71.0833 19.1811 70.9685 18.5925 70.739C18.004 70.5095 17.3182 70.1856 16.5403 69.7647C15.7599 69.3439 15.33 69.0889 15.2558 68.9996C15.179 68.9103 15.1406 68.7701 15.1406 68.5788C15.1406 68.3875 15.2942 68.1835 15.6012 67.9667C15.9083 67.7499 16.1181 67.5331 16.2333 67.3163C16.3484 67.0995 16.4073 66.7221 16.4073 66.189V49.6621C16.4073 48.4634 16.3689 47.4943 16.2921 46.7546C18.1857 46.8822 19.5854 47.0403 20.4963 47.2341C21.4047 47.4254 21.8576 47.6677 21.8576 47.961C21.8576 48.2543 21.5506 48.5425 20.9364 48.8231V68.2192H28.3059L28.311 68.2115Z" fill="#06070A"/>
<path d="M17.2085 86.4595H17.559L19.1251 89.9587H18.6133L18.1476 88.9283H16.6583L16.2233 89.9587H15.709L17.2085 86.4595ZM17.9429 88.4845L17.3799 87.2246L16.8579 88.4845H17.9429Z" fill="#06070A"/>
<path d="M23.6409 89.1533V89.7017C23.275 89.9006 22.8502 90.0001 22.3717 90.0001C21.9828 90.0001 21.6501 89.921 21.3789 89.7654C21.1077 89.6099 20.8927 89.3931 20.7341 89.1202C20.5754 88.8473 20.4961 88.5489 20.4961 88.2301C20.4961 87.7225 20.6778 87.2966 21.0386 86.9523C21.3994 86.608 21.8472 86.4346 22.3794 86.4346C22.7453 86.4346 23.1522 86.5289 23.6025 86.7202V87.2558C23.1931 87.0237 22.7965 86.9064 22.405 86.9064C22.0135 86.9064 21.6732 87.0314 21.4096 87.2839C21.146 87.5364 21.013 87.8501 21.013 88.2301C21.013 88.6101 21.1435 88.9264 21.4019 89.1712C21.6604 89.416 21.993 89.541 22.3999 89.541C22.8067 89.541 23.2366 89.4109 23.6384 89.1533H23.6409Z" fill="#06070A"/>
<path d="M26.4975 86.46H26.8481L28.4141 89.9592H27.9023L27.4366 88.9288H25.9474L25.5124 89.9592H24.998L26.4975 86.46ZM27.2319 88.485L26.669 87.2251L26.147 88.485H27.2319Z" fill="#06070A"/>
<path d="M29.9258 89.9542V86.4805H31.1029C31.5788 86.4805 31.9524 86.5519 32.2287 86.6922C32.5051 86.8324 32.7252 87.0441 32.8889 87.3196C33.0527 87.595 33.1346 87.896 33.1346 88.2224C33.1346 88.4545 33.0885 88.6764 32.999 88.8906C32.9094 89.1049 32.7815 89.2911 32.6151 89.4517C32.4463 89.6175 32.2467 89.7425 32.024 89.8267C31.8935 89.8777 31.7707 89.9134 31.6607 89.9312C31.5507 89.9491 31.3408 89.9567 31.0312 89.9567H29.9258V89.9542ZM31.0517 86.9243H30.4273V89.5129H31.067C31.3178 89.5129 31.5123 89.4951 31.6505 89.4619C31.7886 89.4288 31.9038 89.3854 31.9959 89.3319C32.088 89.2783 32.1725 89.2145 32.2492 89.138C32.4949 88.8881 32.6203 88.5744 32.6203 88.1944C32.6203 87.8144 32.4923 87.516 32.2415 87.2813C32.1494 87.1946 32.042 87.1206 31.9217 87.0645C31.8014 87.0084 31.6863 86.9702 31.5788 86.9523C31.4713 86.9344 31.2973 86.9243 31.0568 86.9243H31.0517Z" fill="#06070A"/>
<path d="M34.8848 86.4805H36.8628V86.9243H35.3837V87.9852H36.8141V88.4316H35.3837V89.5129H36.9114V89.9567H34.8848V86.483V86.4805Z" fill="#06070A"/>
<path d="M41.3459 86.4805H41.8142V89.9593H41.3127V87.2507L40.2405 88.5948H40.1484L39.0634 87.2507V89.9593H38.5645V86.4805H39.0378L40.197 87.9087L41.351 86.4805H41.3459Z" fill="#06070A"/>
<path d="M45.7913 86.4805H46.3977L45.1081 88.1204V89.9618H44.5963V88.1204L43.3066 86.4805H43.9105L44.8445 87.6792L45.7913 86.4805Z" fill="#06070A"/>
</g>
<defs>
<clipPath id="clip0_2253_266">
<rect width="60" height="90" fill="white"/>
</clipPath>
</defs>
</svg>
